<svg width="200" height="200" viewBox="0 0 200 200" fill="none" xmlns="http://www.w3.org/2000/svg">
<g clip-path="url(#clip0_11_241919)">
<path d="M131.407 1C130.41 1 129.447 1.26574 128.583 1.76399C126.657 2.92659 125.66 5.0857 125.992 7.31124C128.417 22.6575 126.756 41.4252 124.165 55.3764C122.737 53.4165 121.242 51.7225 119.913 50.5599C118.917 49.6962 117.655 49.2312 116.326 49.2312C115.296 49.2312 114.3 49.5301 113.436 50.0616C111.377 51.3571 110.413 53.7819 111.044 56.1071C112.905 63.0495 112.772 71.4866 112.34 79.5916C112.24 81.485 111.709 83.9098 110.779 86.7333C110.746 86.5672 110.679 86.4343 110.646 86.3014C110.546 86.0025 110.447 85.7368 110.347 85.4378C111.742 80.6545 111.045 75.9709 110.978 75.4062C110.845 74.5426 110.48 73.7454 109.982 73.0478C109.982 69.7261 109.284 66.1719 108.885 64.8432C108.62 63.9131 108.121 63.1159 107.457 62.4516C107.225 60.06 106.627 57.9008 105.763 55.2103C105.265 53.7155 104.169 52.5197 102.807 51.8886C102.009 49.6962 101.079 47.8029 100.183 46.3745C99.6178 45.5109 98.8538 44.8465 97.957 44.4147C97.3923 42.9199 96.7944 41.4252 96.0968 39.9636C95.2996 38.2363 93.672 37.0737 91.7786 36.8412C91.6457 36.8412 91.5461 36.808 91.4132 36.808C90.3835 34.7485 89.2873 32.7887 88.4569 31.3272C87.5932 29.8324 86.032 28.8359 84.3048 28.6366C82.7768 24.5509 81.2488 21.5946 77.7942 16.5124C76.7645 15.0176 75.0704 14.0875 73.2435 14.0875C72.3798 14.0875 71.5494 14.2868 70.7854 14.6854C69.955 15.1173 69.2906 15.7152 68.7924 16.4459C65.8361 12.3602 62.6804 9.93539 59.2591 9.07175C58.8273 8.9721 58.3954 8.90566 57.9304 8.90566C56.2031 8.90566 54.5423 9.73609 53.5125 11.1644C53.0475 11.7955 52.7485 12.4599 52.5825 13.1907C48.6961 10.2011 41.8866 5.48431 36.7379 5.0857C36.605 5.0857 36.439 5.05248 36.3061 5.05248C34.2134 5.05248 32.3533 6.21508 31.4232 8.07524C30.6924 9.53679 30.6592 11.2309 31.2903 12.6924C26.6067 10.7326 20.9266 8.90566 16.5751 8.90566C16.1101 8.90566 15.6783 8.93888 15.2465 8.9721C12.5891 9.23783 10.4964 11.3305 10.2971 13.9879C10.0978 16.6452 11.8251 19.0701 14.416 19.7012C15.9772 20.0998 18.5349 21.5282 21.5909 23.8533C18.236 23.3551 14.9807 23.0561 12.2237 23.0561C9.86529 23.0561 7.87227 23.2554 6.27785 23.654C3.72013 24.2852 1.99285 26.6436 2.15893 29.2677C2.32502 31.9583 4.31804 34.0842 6.90897 34.4164C9.23417 34.7153 13.8513 36.343 18.8339 39.5318C15.479 40.0301 12.6223 40.7941 10.8286 41.3255C8.76913 41.9567 6.90897 42.621 5.38099 43.3518C2.95614 44.4812 1.59424 45.5773 0.763814 47.0056C-0.299133 48.8326 -0.299133 50.9585 0.730597 52.7522C1.52781 54.1141 3.15544 55.7417 6.54358 55.7417C6.70967 55.7417 6.87576 55.7417 7.04184 55.7417H7.10827C11.2272 55.7417 18.2028 57.4026 28.0018 65.3083C33.9477 70.0915 39.196 75.9377 41.0229 78.5619C44.6768 83.777 47.5335 85.4378 54.4758 89.4571C55.4391 90.0218 56.4689 90.6197 57.6314 91.284C58.8273 91.9816 62.0493 94.7054 66.4008 104.969C67.7959 108.258 69.1578 112.045 70.3536 115.865C68.2941 116.529 65.9689 117.326 63.677 118.223C63.5441 118.223 63.378 118.223 63.2451 118.223C61.0196 118.223 59.4916 118.289 57.7643 118.688C54.2433 119.286 52.3499 120.449 49.2275 122.342C48.0649 123.04 46.6366 123.936 44.7432 124.999C38.0334 128.819 33.6155 133.603 30.8917 140.013C29.9284 142.305 29.1312 144.93 28.7658 147.055C28.5001 148.617 28.4669 149.979 28.6329 151.174V151.208C27.8689 152.769 27.1382 154.994 27.1714 157.751C27.2046 163.066 30.8585 166.953 32.2536 168.414C33.2833 169.51 34.7449 170.141 36.2396 170.141C37.1697 170.141 38.0998 169.909 38.897 169.444C39.9267 168.879 40.724 168.015 41.189 166.986C41.8866 167.318 42.6838 167.484 43.4478 167.484C43.9128 167.484 44.3778 167.418 44.8097 167.318C46.6698 166.853 48.1646 165.391 48.6961 163.531C48.7293 163.398 48.7957 163.232 48.8289 163C50.1576 157.951 51.5859 155.758 52.4496 154.828C54.3762 153.998 55.6052 153.699 56.0038 153.599C56.1699 153.599 56.336 153.599 56.5353 153.599C56.9007 153.599 57.2661 153.599 57.5982 153.566C57.8307 153.566 58.0633 153.566 58.2626 153.566C59.2591 154.563 60.6542 155.16 62.1158 155.16C62.2486 155.16 62.4147 155.16 62.5476 155.127C64.142 154.994 65.5703 154.197 66.4672 152.968C67.4305 153.134 68.3273 153.234 69.1246 153.334C69.4567 153.998 69.8553 154.662 70.2872 155.26C70.5861 155.659 70.8518 155.991 71.0844 156.257C71.7487 157.054 71.8484 157.187 71.9148 157.652C71.9812 158.117 72.0477 158.515 72.1141 158.881C69.191 158.881 66.4008 160.309 64.7731 162.601C64.0756 163.598 63.6105 164.727 63.4112 165.89C62.8465 165.79 62.2486 165.723 61.6507 165.723C58.9601 165.723 56.6017 166.82 55.1734 168.746C52.0178 168.779 48.9618 170.54 47.4006 173.264C45.939 175.788 45.9723 178.811 47.467 181.336C47.766 181.867 48.1646 182.332 48.6296 182.697C48.4635 183.893 48.53 185.155 48.8621 186.351C49.4933 188.544 51.4531 190.138 53.7451 190.271C53.8779 190.271 54.0108 190.271 54.1104 190.271C55.0405 190.271 55.9706 190.005 56.7678 189.573C57.6979 189.906 58.6612 190.105 59.6909 190.105C60.621 190.105 61.4182 189.972 62.0493 189.872H62.0825C62.1158 189.872 62.1158 189.872 62.149 189.872C62.8465 189.872 63.4112 189.872 63.9427 189.872C64.7399 189.872 65.371 189.872 66.0354 189.839C66.2679 190.204 66.5004 190.503 66.7329 190.769C66.7329 190.802 66.7661 190.802 66.7661 190.836C66.3343 191.732 66.1682 192.762 66.3011 193.759C66.5336 195.885 68.0284 197.712 70.0879 198.343C71.1508 198.675 72.247 198.741 72.9445 198.741C76.2662 198.741 78.9568 197.346 80.3851 194.955C81.3484 193.327 81.581 191.367 81.0495 189.44C81.0495 189.44 81.0495 189.44 81.0495 189.407C81.5145 190.005 82.0792 190.503 82.7436 190.869C84.0722 191.6 85.866 192.031 87.5268 192.031C90.1842 192.031 92.5094 190.935 93.8713 189.009C94.2034 188.544 94.5688 187.946 94.8013 187.182C95.4657 187.481 96.1965 187.614 96.9605 187.614C97.658 187.614 98.3556 187.481 99.0199 187.215C99.3189 187.082 99.9832 186.816 100.78 186.384C100.98 186.418 101.179 186.418 101.378 186.418C102.176 186.418 102.94 186.252 103.637 185.919C103.87 185.953 104.135 185.986 104.401 185.986C104.468 185.986 104.534 185.986 104.6 185.986C106.759 185.886 108.686 184.524 109.483 182.498C109.517 182.432 109.517 182.398 109.55 182.332C109.55 182.299 109.583 182.266 109.583 182.232C114.366 185.787 121.873 191.334 124.464 193.327C124.73 193.526 124.962 193.692 125.195 193.892C127.719 195.851 130.111 197.678 133.4 197.678C134.761 197.678 136.09 197.346 137.419 196.682C138.847 197.313 140.707 198.044 142.9 198.741C144.295 199.206 145.657 199.439 146.952 199.439C149.576 199.439 151.902 198.509 153.662 196.748C154.559 195.851 155.256 194.788 155.755 193.559C159.342 192.53 160.737 189.972 161.236 188.776C161.999 186.883 161.999 184.757 161.302 182.631C161.435 182.398 161.534 182.166 161.634 181.9C162.199 180.538 162.431 179.044 162.365 177.482C162.963 176.884 163.461 176.22 163.926 175.456C165.454 172.898 165.919 169.776 165.288 166.753C166.251 164.195 168.377 158.084 168.012 154.131C167.846 152.204 166.617 150.477 164.856 149.68C164.125 149.347 163.361 149.181 162.564 149.181C162.498 149.181 162.431 149.181 162.365 149.181C161.966 148.351 161.335 147.62 160.538 147.089C159.608 146.458 158.545 146.125 157.449 146.125C156.618 146.125 155.788 146.325 155.057 146.69C150.739 148.783 146.919 150.444 143.132 151.54C144.228 149.979 144.926 148.75 145.092 148.451C145.69 147.388 146.155 146.424 146.52 145.494C149.111 145.029 152.732 144 155.921 141.708C158.312 140.013 162.863 135.23 163.295 130.281C164.358 129.583 165.388 128.853 166.351 128.089C170.902 124.435 172.23 122.209 173.526 120.05C173.858 119.485 174.124 119.02 174.489 118.489C175.386 117.16 175.652 115.566 175.286 114.071C177.313 112.111 178.907 109.454 180.036 106.165L180.07 106.032C180.136 105.833 180.202 105.634 180.236 105.434C182.195 103.641 184.022 101.216 185.451 98.5253C186.647 96.2334 187.909 93.0777 187.71 90.2543C191.297 85.5707 195.017 78.9605 196.346 75.5059C197.21 73.2471 196.446 70.6894 194.585 69.2279C196.612 66.1055 199.203 61.754 199.801 58.7977C200.365 56.1736 198.937 53.5494 196.412 52.5861C195.781 52.3536 195.117 52.2207 194.453 52.2207C192.526 52.2207 190.732 53.2505 189.736 54.9113C189.669 55.011 189.437 55.4096 188.806 56.0075C189.902 52.0546 190.201 48.9322 189.703 46.6403C189.138 44.149 186.979 42.4217 184.454 42.3553H184.388C182.993 42.3553 181.664 42.8867 180.701 43.7836C180.8 40.1962 180.601 35.1472 179.106 32.1908C178.176 30.3639 176.316 29.2013 174.257 29.2013C174.057 29.2013 173.858 29.2013 173.692 29.2345C172.098 23.0229 169.872 18.8708 167.082 16.9442C166.152 16.3131 165.089 15.9809 163.993 15.9809C162.597 15.9809 161.269 16.5124 160.239 17.4757C159.874 17.8078 159.575 18.2064 159.309 18.6383C158.512 15.7152 157.648 13.1574 156.718 10.9983C154.127 4.98605 150.971 1.76399 147.052 1.13287C146.753 1.09965 146.487 1.06643 146.188 1.06643C144.494 1.06643 142.866 1.86364 141.837 3.22554C140.608 4.85318 140.375 6.97907 141.239 8.80601C142.335 11.1312 143.066 14.7851 143.498 19.203C143.265 18.3725 143.033 17.5089 142.767 16.6785C140.508 9.27105 137.884 4.48779 134.695 2.09616C133.765 1.3986 132.569 1 131.407 1Z" fill="#8DC6E8"/>
<path d="M196.944 58.1665C197.176 56.9707 196.545 55.7749 195.416 55.3431C195.117 55.2434 194.818 55.177 194.519 55.177C193.655 55.177 192.825 55.6088 192.393 56.406C191.861 57.3029 189.802 60.0267 183.059 63.1159C183.657 61.754 184.222 60.3921 184.687 59.163C185.816 56.1071 187.576 50.5266 186.846 47.2713C186.58 46.142 185.617 45.3447 184.454 45.3447H184.421C183.291 45.3447 182.295 46.1087 182.029 47.2049C181.431 49.5301 179.704 51.9882 176.283 55.177C177.013 52.0546 177.379 49.0983 177.545 47.1052C177.91 42.5877 177.877 36.3761 176.449 33.5859C176.017 32.7555 175.153 32.224 174.256 32.224C174.024 32.224 173.791 32.2572 173.592 32.3237C172.496 32.6226 171.765 33.6191 171.798 34.7485C171.665 33.9181 171.499 33.0876 171.333 32.2572C170.536 28.4373 168.676 21.7274 165.387 19.4686C164.956 19.1697 164.457 19.0368 163.992 19.0368C163.361 19.0368 162.763 19.2693 162.298 19.7012C161.435 20.4984 161.268 21.7938 161.866 22.7904C163.162 24.9162 162.929 30.0649 161.302 36.5754C161.003 37.7713 160.671 38.9338 160.338 40.0632C159.807 35.745 159.043 30.8953 158.08 26.411C156.851 20.5648 155.456 15.7815 153.961 12.1941C151.835 7.21154 149.443 4.55418 146.587 4.08914C146.454 4.05592 146.321 4.05592 146.188 4.05592C145.424 4.05592 144.693 4.42131 144.228 5.05243C143.663 5.78321 143.564 6.7465 143.962 7.57693C147.649 15.549 147.716 34.5492 145.158 49.4304C144.859 44.5807 144.328 39.3657 143.531 34.1174C142.135 25.0159 138.913 9.03848 132.934 4.52096C132.503 4.18879 131.971 4.02271 131.44 4.02271C131.008 4.02271 130.576 4.15557 130.177 4.38809C129.314 4.91957 128.849 5.91608 129.015 6.91259C131.739 24.1855 129.546 46.8063 125.627 63.3816C123.467 59.2295 120.445 55.0441 118.02 52.9182C117.555 52.5196 116.99 52.3203 116.392 52.3203C115.927 52.3203 115.495 52.4532 115.097 52.6857C114.167 53.2504 113.735 54.3798 114.001 55.4427C115.96 62.8169 115.828 71.5198 115.396 79.8573C115.03 86.6003 110.347 96.499 107.689 101.581C108.055 98.1931 108.487 94.2403 108.653 93.1773C108.752 92.5462 108.586 91.9483 108.287 91.45C108.752 89.8224 108.287 88.5269 107.889 87.3311C107.756 86.9325 107.623 86.5339 107.49 86.1021C107.424 85.9028 107.357 85.7035 107.258 85.5374C108.885 81.0531 108.121 76.137 108.088 75.9377C107.988 75.2401 107.59 74.6422 107.025 74.2768C107.224 71.2208 106.527 67.2348 106.095 65.7068C105.896 64.976 105.331 64.3781 104.667 64.1124C104.567 61.4218 104.002 59.2295 103.006 56.1735C102.674 55.1438 101.71 54.4462 100.647 54.4462C100.614 54.4462 100.614 54.4462 100.581 54.4462C99.7837 52.0214 98.7872 49.663 97.7242 48.0353C97.2924 47.3378 96.5284 46.9392 95.7312 46.9059C95.1665 45.2783 94.4357 43.3517 93.4724 41.259C93.1071 40.4951 92.3763 39.9304 91.5126 39.8307C91.413 39.8307 91.3133 39.7975 91.2137 39.7975C90.7154 39.7975 90.2172 39.9636 89.8186 40.2293C88.6228 37.5387 87.0616 34.7153 85.9654 32.8219C85.5336 32.0579 84.7031 31.5929 83.8395 31.5929C83.7066 31.5929 83.607 31.5929 83.4741 31.6261C83.1087 31.6925 82.7766 31.8254 82.4776 32.0247C80.7171 26.9425 79.4881 24.1855 75.4688 18.2064C75.0038 17.5088 74.2066 17.1102 73.4093 17.1102C73.044 17.1102 72.6454 17.2099 72.28 17.376C71.1506 17.9407 70.6523 19.2361 71.0841 20.4319C72.1471 23.355 72.6121 26.8096 72.745 30.1313C71.8481 27.8393 70.8848 25.7135 69.8883 23.7869C66.3673 16.9441 62.5806 12.9913 58.6942 11.9948C58.4949 11.9616 58.2956 11.9284 58.0963 11.9284C57.3323 11.9284 56.5683 12.2938 56.1032 12.9581C55.5053 13.7553 55.4721 14.8515 56.0036 15.7151C57.3655 17.9407 58.0963 20.1662 58.4949 22.2257C56.4686 20.133 54.0106 17.9739 51.3532 15.8812C48.5298 13.6557 41.4213 8.44058 36.6713 8.07519C36.6048 8.07519 36.5384 8.07519 36.472 8.07519C35.5419 8.07519 34.6782 8.60666 34.2464 9.43709C33.7814 10.3339 33.9475 11.4301 34.6118 12.1941C36.6048 14.4529 38.3321 17.2763 39.5944 19.8008C37.4352 18.6382 35.0768 17.5088 33.0506 16.612C29.0645 14.8847 21.6571 11.9616 16.7078 11.9616C16.3424 11.9616 15.977 11.9616 15.6448 11.9948C14.449 12.0945 13.4857 13.0577 13.4193 14.2868C13.3196 15.4826 14.1169 16.5788 15.2795 16.8777C18.9666 17.8078 25.5767 22.4914 32.0541 29.3009C30.9579 28.9687 29.7621 28.6366 28.4666 28.3044C22.9194 26.9425 16.9071 26.1121 12.3564 26.1121C10.2637 26.1121 8.50317 26.2781 7.10806 26.6103C5.94546 26.9093 5.14825 27.9722 5.2479 29.168C5.31433 30.3638 6.2112 31.3271 7.40701 31.4932C11.7917 32.0579 20.0959 35.7118 27.1047 42.0895C26.6397 42.0563 26.1747 42.0563 25.7096 42.0563C19.9631 42.0563 14.5487 43.4182 11.8249 44.2486C9.89829 44.8133 8.171 45.4776 6.77589 46.1087C4.48391 47.1717 3.81957 47.9357 3.4874 48.5336C2.98914 49.3972 2.95592 50.427 3.45418 51.2906C4.31782 52.7854 6.11154 52.7854 6.67623 52.7854C6.8091 52.7854 6.94197 52.7854 7.10806 52.7854C7.14127 52.7854 7.20771 52.7854 7.24092 52.7854C11.8581 52.7854 19.5312 54.5459 30.0278 63.0162C36.5384 68.2645 41.8199 74.31 43.6468 76.8677C46.9021 81.5513 49.4266 83.0129 56.1365 86.8993C57.0998 87.464 58.1295 88.0619 59.2921 88.7595C61.4844 90.0549 65.0054 93.7088 69.2904 103.84C71.0509 108.025 72.8114 112.975 74.2065 117.824C74.1401 117.858 74.0405 117.891 73.974 117.891C71.2834 118.754 67.7624 119.884 64.3411 121.246C64.2414 121.246 64.1086 121.213 64.0089 121.213C63.8096 121.213 63.6103 121.213 63.4442 121.213C61.3848 121.213 60.0229 121.279 58.5281 121.611C55.5386 122.109 54.0106 123.039 50.9546 124.9C49.792 125.63 48.2972 126.494 46.3706 127.59C40.2587 131.078 36.2726 135.396 33.7814 141.176C32.8845 143.269 32.1537 145.66 31.8548 147.52C31.6555 148.783 31.589 149.846 31.7219 150.743C31.7551 151.075 31.8216 151.374 31.9212 151.639C31.124 152.935 30.2604 154.994 30.2936 157.718C30.3268 161.87 33.2831 165.026 34.5454 166.355C35.0104 166.853 35.6747 167.119 36.3391 167.119C36.7377 167.119 37.1695 167.019 37.5349 166.82C38.5314 166.255 39.0297 165.126 38.7307 164.029C38.5646 163.199 39.0961 160.442 39.6276 158.847C39.694 159.611 39.8601 160.409 40.159 161.239C40.6241 162.568 41.5874 163.598 41.7867 163.764C42.2517 164.229 42.8828 164.494 43.5472 164.494C43.7465 164.494 43.9458 164.461 44.1783 164.428C45.042 164.195 45.7063 163.564 45.9388 162.701C45.972 162.601 46.0053 162.435 46.0717 162.236C47.3672 157.319 48.9948 153.965 50.9214 152.304C53.4791 151.174 55.3725 150.643 56.0036 150.61C56.2029 150.61 56.4354 150.61 56.6679 150.61C57.0001 150.61 57.3323 150.61 57.6644 150.576C57.9966 150.576 58.2956 150.543 58.5613 150.543C59.6907 150.543 59.9564 150.676 60.0229 150.743C60.0229 150.743 60.0229 150.743 60.0229 150.776C60.4547 151.639 61.3183 152.171 62.2484 152.171C62.3148 152.171 62.3813 152.171 62.4477 152.171C63.4442 152.104 64.3079 151.407 64.6068 150.41C64.7065 150.111 64.7729 149.846 64.8061 149.547C66.9984 150.111 69.224 150.344 70.7852 150.51C70.9513 150.51 71.1174 150.543 71.2835 150.543C71.6821 151.507 72.2135 152.636 72.8447 153.433C73.0772 153.765 73.3429 154.031 73.5754 154.33C74.3062 155.194 74.9041 155.891 75.0702 157.253C75.1698 157.951 75.3027 158.482 75.4024 158.914C75.5352 159.479 75.6681 159.944 75.7345 160.874C75.7345 161.04 75.7678 161.173 75.8342 161.339C75.7678 161.405 75.7013 161.505 75.6349 161.571C75.4024 161.87 75.2031 162.169 75.037 162.535C74.2065 162.103 73.3097 161.87 72.3132 161.87C70.3534 161.87 68.4932 162.8 67.4303 164.328C66.467 165.657 66.2677 167.351 66.8324 168.912C67.1645 169.809 67.9285 170.407 68.8586 170.54C68.4932 170.938 68.1943 171.404 67.9617 171.869C67.6628 171.669 67.3971 171.503 67.0981 171.37C65.9687 169.743 64.0421 168.713 61.883 168.713C60.0893 168.713 58.5613 169.411 57.7309 170.64C57.4319 171.038 57.2326 171.503 57.133 172.001C56.6015 171.835 56.0368 171.769 55.4721 171.769C53.313 171.769 51.2868 172.932 50.2238 174.758C49.2937 176.386 49.327 178.213 50.257 179.841C50.7221 180.605 51.5193 181.07 52.3829 181.07C52.4494 181.07 52.4826 181.07 52.549 181.07C51.7518 182.398 51.5193 184.059 51.9511 185.554C52.2501 186.551 53.1137 187.248 54.1434 187.348C54.2099 187.348 54.2431 187.348 54.3095 187.348C55.2396 187.348 56.1032 186.816 56.5351 185.953C57.4651 186.75 58.5945 187.148 59.9232 187.148C60.5875 187.148 61.2187 187.049 61.7834 186.949C61.9162 186.916 62.0159 186.916 62.1488 186.883C62.946 186.883 63.5771 186.883 64.175 186.883C65.4705 186.883 66.3673 186.849 67.5299 186.816C67.6628 186.816 67.7624 186.783 67.8953 186.783C67.9617 186.849 68.0282 186.949 68.1278 187.082C68.5264 187.979 68.8918 188.444 69.2572 188.876C69.4565 189.108 69.5894 189.274 69.8551 190.005C70.0212 190.437 70.2537 190.836 70.5195 191.168C69.7887 191.699 69.3569 192.563 69.4897 193.493C69.5894 194.456 70.2869 195.287 71.217 195.586C71.9146 195.818 72.6786 195.851 73.1768 195.851C75.4024 195.851 77.1629 195.021 78.0265 193.559C78.4916 192.762 78.8569 191.533 78.2258 189.872C78.4916 188.178 77.6943 186.451 76.6646 185.155C77.2957 184.79 78.0597 184.425 78.5912 184.126C78.9566 183.926 79.322 183.76 79.6542 183.561C79.8867 184.092 80.2853 184.558 80.8167 184.823C81.1821 184.989 81.5475 185.089 81.9129 185.089C82.4444 185.089 82.9426 184.923 83.3745 184.591C83.5405 184.458 83.9059 184.159 84.371 183.594C84.4042 183.694 84.4706 183.827 84.5371 183.926C83.7066 184.292 83.1419 185.089 83.0755 185.986C83.0091 186.949 83.5073 187.879 84.371 188.344C85.2678 188.843 86.5633 189.141 87.7259 189.141C89.42 189.141 90.8151 188.51 91.6455 187.381C92.1105 186.717 92.5756 185.654 92.3431 184.092C92.7085 183.063 92.6752 181.967 92.4095 180.904L94.7347 181.933C94.7347 181.967 94.7347 182 94.7347 182.066C94.6683 182.93 95.0337 183.76 95.7312 184.259C96.163 184.591 96.6945 184.757 97.1928 184.757C97.4917 184.757 97.8239 184.69 98.1228 184.591C98.455 184.458 99.4515 184.026 100.514 183.328C100.614 183.395 100.747 183.428 100.847 183.461C101.079 183.528 101.345 183.561 101.577 183.561C102.175 183.561 102.74 183.362 103.205 182.963C103.238 182.93 103.305 182.863 103.371 182.797C103.737 182.996 104.168 183.129 104.6 183.129C104.633 183.129 104.667 183.129 104.7 183.129C105.696 183.096 106.56 182.465 106.925 181.568C106.959 181.502 106.992 181.402 107.025 181.335C107.191 180.937 107.324 180.538 107.457 180.073C108.055 179.841 108.553 179.409 108.819 178.811C108.852 178.711 108.985 178.512 109.084 178.346C109.118 178.279 109.151 178.246 109.184 178.18C113.868 181.668 123.434 188.743 126.49 191.068C126.756 191.267 126.988 191.433 127.221 191.633C129.513 193.393 131.34 194.788 133.632 194.788C135.127 194.788 136.389 194.19 137.452 193.426C138.847 194.091 141.139 195.087 144.029 196.017C145.125 196.383 146.188 196.549 147.151 196.549C148.978 196.549 150.539 195.918 151.735 194.722C152.665 193.792 153.296 192.53 153.629 191.035C156.95 190.703 158.179 188.876 158.644 187.746C159.342 185.986 158.977 184.026 158.113 182.398C158.511 181.933 158.844 181.402 159.076 180.837C159.641 179.509 159.741 178.014 159.375 176.386C160.239 175.821 160.97 175.024 161.534 174.061C162.796 171.902 163.095 169.178 162.331 166.687C163.494 163.863 165.52 157.785 165.221 154.562C165.155 153.699 164.59 152.902 163.793 152.536C163.461 152.37 163.095 152.304 162.763 152.304C162.265 152.304 161.767 152.47 161.335 152.736C161.335 152.736 160.837 153.068 159.973 153.566C160.039 153.034 160.073 152.503 160.139 151.905C160.206 151.008 159.807 150.145 159.076 149.646C158.644 149.347 158.179 149.215 157.681 149.215C157.316 149.215 156.95 149.281 156.585 149.48C148.845 153.267 142.468 155.692 135.193 155.958V155.891C139.046 153.533 142.567 147.354 142.733 147.055C143.697 145.328 144.261 143.966 144.56 142.87C147.716 142.538 151.469 141.475 154.492 139.349C156.784 137.721 161.036 132.905 160.604 129.019C160.604 128.919 160.571 128.819 160.571 128.686C161.767 127.989 163.262 127.026 164.79 125.796C168.942 122.475 170.071 120.581 171.267 118.555C171.599 117.99 171.931 117.459 172.33 116.861C172.861 116.097 172.894 115.067 172.429 114.237C172.23 113.905 171.964 113.606 171.665 113.407C174.256 111.779 176.183 109.055 177.478 105.268L177.512 105.135C177.645 104.77 177.678 104.405 177.611 104.006C179.638 102.445 181.564 99.9868 183.059 97.1634C184.022 95.3032 185.55 91.8486 184.786 89.4902V89.457C188.34 85.1056 192.493 77.8975 193.788 74.4429C194.22 73.3467 193.788 72.1177 192.792 71.4866C192.393 71.2208 191.928 71.088 191.463 71.088C190.798 71.088 190.167 71.3537 189.669 71.852C189.37 72.1509 189.038 72.4499 188.673 72.7488C189.437 71.7523 190.068 70.8555 190.533 70.2243C193.157 66.2383 196.346 60.99 196.944 58.1665Z" fill="white"/>
<path d="M45.5734 75.4062C48.9616 80.2558 51.2203 81.1527 60.4547 86.5671C69.5894 91.915 76.3656 116.728 76.6314 117.525C86.5633 114.768 93.7382 106.763 104.833 104.405C104.833 104.405 105.862 94.5392 106.128 92.7123C105.862 93.443 103.637 96.2997 102.441 96.7979C103.172 95.436 104.766 93.742 105.298 91.8818C106.527 89.922 105.696 89.0584 105.032 86.7C105.132 87.7297 102.84 89.6895 101.81 90.1545C102.64 89.5234 104.102 86.6003 104.667 85.0723C106.327 81.0531 105.563 76.2698 105.563 76.2698C105.132 77.2331 103.537 78.8607 102.209 79.9237C102.939 78.3625 104.301 76.2034 104.235 75.6719C104.899 73.5792 104.268 68.497 103.637 66.3379C103.404 67.4673 100.847 71.553 99.4183 73.1806C100.282 71.254 101.943 68.7295 102.142 64.4777C102.076 61.9532 101.577 59.927 100.581 56.871L99.5179 62.0861C99.684 59.3955 97.6578 52.5196 95.5983 49.3307L94.7347 52.0878C95.0336 54.4794 94.4025 49.1979 91.1805 42.2887C91.1805 42.2887 89.3203 44.6471 88.9549 45.6437C88.5895 42.5545 84.9689 36.1436 83.8063 34.1173C83.8063 34.1173 83.0091 37.5387 82.6104 40.2293C78.8901 29.5666 78.7905 27.6732 73.3429 19.6015C76.4653 28.2379 74.738 40.3621 74.4058 43.6506C71.1838 30.9949 64.9057 16.1469 57.9966 14.4196C61.883 20.6976 61.1522 26.9424 61.4844 30.0981C57.4983 22.9896 42.4178 11.0315 36.3723 10.5332C40.3915 15.1172 43.979 22.4581 43.979 25.6802C40.7902 22.4249 22.7865 13.8217 15.7777 14.4528C21.9229 15.9476 32.9509 25.2484 40.7902 35.9443C34.2464 30.8288 14.5487 27.2746 7.63951 29.0019C14.0836 29.8323 26.1746 35.8446 33.9474 45.8762C33.9142 45.843 33.881 45.8097 34.0139 45.9426C22.1222 40.96 -0.432238 50.6262 7.00839 50.294C24.0487 50.0947 42.1853 70.5897 45.5734 75.4062ZM91.3798 44.8132C92.642 46.5073 93.5057 50.9584 93.9043 54.2137C94.4357 58.5983 91.1805 69.8589 89.7189 70.5565C92.5091 61.0896 91.7119 46.6402 91.3798 44.8132ZM84.4706 36.8743C86.2975 39.3324 87.4934 45.7765 88.1245 50.4601C88.8885 56.1402 86.0318 63.1491 83.9391 64.212C87.9252 50.593 84.9356 39.5649 84.4706 36.8743ZM76.8307 27.175C79.023 30.1645 80.4846 37.9705 81.2153 43.6506C82.1122 50.5266 78.6244 59.0966 76.0667 60.3588C80.9828 43.7835 77.3954 30.4302 76.8307 27.175ZM70.1873 34.3166C72.446 40.8604 71.2834 54.8116 69.0247 56.5721C70.0544 41.724 63.8428 23.1225 62.647 20.0665C65.3708 22.5578 68.3271 28.9022 70.1873 34.3166ZM40.458 12.8916C43.8461 14.2535 52.3497 22.6242 55.9371 27.0421C60.2886 32.39 64.1418 46.2083 62.6802 48.6664C58.4616 34.3831 42.6171 15.3497 40.458 12.8916ZM22.5872 16.313C26.2079 16.5455 41.3216 25.5805 46.1049 28.6697C51.8847 32.39 58.7606 45.5772 58.1295 48.3675C49.7255 36.0439 25.4106 17.9406 22.5872 16.313ZM14.5819 29.3673C18.1693 28.8358 33.4492 34.1173 38.7307 36.1768C45.0752 38.6348 55.2064 48.6664 55.1399 51.5563C44.5105 41.259 17.6711 30.397 14.5819 29.3673ZM9.63254 48.8325C13.7182 47.3709 23.9159 43.8831 33.881 46.5073C37.4352 47.4374 40.9895 49.1647 44.2115 52.0545C52.3165 59.3291 48.8951 57.934 48.8951 57.934C41.9527 52.7189 39.5611 51.4234 30.7586 49.3307C24.082 47.7363 19.5312 48.2678 9.63254 48.8325Z" fill="#16315A"/>
<path d="M82.0791 177.947L77.0633 177.017L76.4654 176.951C75.9007 176.951 75.2031 176.918 74.6385 176.785C74.3395 177.748 74.1402 177.283 73.9077 178.612C74.5056 177.981 74.8378 178.047 75.6682 178.213L74.871 178.977L73.5755 180.505C71.3167 180.505 70.0213 179.974 70.0213 179.974C69.2241 178.877 69.1909 177.715 68.4269 176.652C67.3307 174.36 66.1681 173.397 65.2712 173.496C64.0754 170.108 58.4617 170.673 59.4583 173.397C60.4548 171.869 63.0789 173.031 63.4443 175.124C62.8796 175.821 62.9128 176.552 63.9758 177.648C64.6069 178.612 65.9356 180.273 65.9356 180.273C63.7433 179.376 63.2782 178.977 62.1156 178.313C60.2887 176.984 58.4617 175.556 57.9967 175.622C55.439 172.267 50.4232 175.522 52.2169 178.545C52.2169 176.918 54.9407 175.921 55.6051 177.349C55.8044 179.176 56.0701 179.575 58.0964 180.14C60.1226 180.704 59.7572 180.106 60.4215 180.571C60.9862 180.97 61.5841 181.634 62.3149 181.867C62.2485 181.867 62.2153 181.867 62.1488 181.867C61.1191 181.801 59.425 180.704 57.9303 181.701C55.3726 179.907 53.5456 182.764 54.1435 184.823C54.7082 183.561 55.904 182.963 57.6977 183.76C58.8936 185.056 60.3551 184.558 61.7834 184.358C64.474 184.391 65.4705 184.358 67.231 184.325C67.9286 184.159 68.7258 183.827 70.0877 185.82C70.8185 187.547 71.1839 187.016 71.9479 189.108C72.3133 190.072 73.3762 190.072 73.3762 190.072C74.0738 192.131 73.4094 192.131 71.7154 193.128C73.044 193.559 77.2626 193.294 75.336 189.939C76.1664 188.544 74.572 186.484 73.6087 185.687C72.6454 184.89 73.4094 184.026 73.4094 184.026C73.9409 183.395 77.9602 181.468 79.7207 180.439L81.448 179.21C81.5808 180.007 81.7137 181.169 81.7137 182.465C81.7137 182.465 82.7102 181.734 83.8728 179.376C83.906 178.578 83.2417 177.748 82.0791 177.947ZM76.565 180.538C75.0703 181.402 73.1769 182.498 72.8447 183.561C72.8447 183.561 71.815 184.524 72.6122 185.189C73.4426 185.853 75.8011 188.145 75.1035 189.341C74.7049 189.607 73.8412 189.474 72.7783 188.245C71.6489 187.115 72.2136 187.481 69.9549 184.558C68.759 183.661 68.7922 183.694 67.5632 183.328C66.2678 183.461 64.3744 184.159 61.8831 183.561C60.6541 183.727 59.5579 184.956 58.5614 183.827C58.2624 183.395 58.2292 183.096 58.3621 182.764C59.0264 181.601 60.953 182.498 62.8464 182.564L66.4338 182.764C66.4338 182.764 64.1751 181.734 63.3447 181.734C62.5142 181.701 60.7537 180.439 60.189 180.04C59.6243 179.641 60.0562 180.14 58.3289 179.641C56.6016 179.176 56.2362 178.778 56.0701 177.217C55.9705 176.486 56.8673 175.689 57.7974 176.486C59.0264 176.918 59.9897 177.482 60.8534 178.147C61.5841 178.512 62.8464 179.675 65.1384 180.505C65.8359 180.804 66.5999 182.531 68.0947 181.9C67.7625 181.668 67.3639 181.502 67.0317 180.339C66.766 179.741 65.6366 178.313 65.3045 177.848C63.9426 177.217 63.8097 176.486 63.8097 175.19C64.2083 175.057 64.773 174.991 65.0719 174.493C65.8027 174.393 67.065 175.024 67.2643 177.416C67.8954 177.814 69.2241 179.841 69.7223 180.738C69.7223 180.738 71.9811 181.203 73.9077 181.236L74.9042 179.907L76.4322 178.014L79.0231 178.412L76.565 180.538Z" fill="#16315A"/>
<path d="M178.508 79.7244C184.255 75.7715 193.655 61.7871 194.519 57.6682C192.957 60.3588 188.174 64.3781 177.279 68.0652C180.368 64.8431 185.384 52.0545 184.454 47.836C183.291 52.3203 179.106 56.6053 170.768 63.0162C175.884 54.2136 176.116 38.2695 174.289 34.7152C174.688 39.6646 172.031 40.9268 169.539 47.8027C171.366 40.0632 167.912 24.1854 163.992 21.4616C167.912 27.9389 161.102 46.9391 158.644 51.0248C159.043 44.6471 154.459 7.8094 146.221 6.51393C151.968 18.9371 149.576 55.343 142.036 67.4673C145.092 54.3133 139.976 12.9248 131.439 6.48071C134.828 27.9057 130.808 55.8081 125.959 71.553C125.593 67.1019 120.245 58.1 116.359 54.7119C118.285 61.92 118.352 70.3239 117.82 79.8904C117.256 90.0217 107.955 106.065 107.955 106.065L104.899 106.331C93.8045 108.69 87.1943 116.562 77.2624 119.319C77.2624 119.319 77.2624 119.319 77.2624 119.352C74.0403 120.448 68.1609 122.143 62.9458 124.401C62.4808 124.534 62.049 124.667 61.6836 124.833C62.3479 124.534 63.577 123.97 63.8759 123.637C61.6172 123.637 60.3217 123.671 58.8601 124.003C55.2727 124.601 54.2762 125.83 47.4667 129.716C40.6572 133.602 37.6344 138.153 35.9404 142.139C34.4788 145.594 33.0505 150.975 34.811 151.706H34.8442C34.811 151.739 34.7778 151.772 34.7445 151.839L34.811 151.706C34.811 151.706 32.6187 153.798 32.6187 157.685C32.6187 160.741 34.9438 163.299 36.2061 164.627C35.7078 162.833 36.9701 157.552 37.9998 156.323C38.9631 155.526 41.853 152.304 41.853 152.304C44.4439 152.569 40.7568 155.791 42.3845 160.375C42.6834 161.239 43.4474 162.003 43.4474 162.003C43.8128 160.774 45.4737 153.367 49.4929 150.145C51.7185 149.148 54.5751 148.118 55.937 148.085C58.0297 148.218 61.0857 147.487 62.1486 149.646C62.5472 148.318 62.2815 147.122 61.5507 145.926C61.8497 145.926 62.1154 145.959 62.3812 145.959C65.9354 147.952 72.0473 147.919 72.6452 148.251C72.7781 147.388 73.7414 150.709 74.7047 151.905C75.6348 153.167 77.0631 154.263 77.3953 156.888C77.5614 158.25 77.8935 158.715 78.0596 160.608C78.7904 160.409 80.2519 160.575 81.1488 160.94C82.5107 161.472 83.8062 162.601 84.1051 163.863C85.1681 164.195 85.9653 165.757 86.5632 167.949C86.8621 168.613 87.0614 169.477 87.1611 170.108C87.2607 170.639 87.1611 170.639 87.3936 171.171C87.7258 171.37 87.9251 171.769 89.5527 172.101C89.7852 172.035 90.9146 171.204 91.0475 171.171C91.1139 171.138 92.1437 171.47 93.2398 171.337L91.1471 172.799L89.5859 174.061C87.3604 173.629 86.1978 172.865 86.1978 172.865C85.6331 171.636 85.7992 170.507 85.2677 169.278C84.6034 166.82 83.6733 165.624 82.7764 165.59C82.245 162.069 76.6313 161.538 77.0963 164.361C78.3586 163.066 80.717 164.694 80.6838 166.82C80.0194 167.384 79.8866 168.148 80.717 169.41C81.1488 170.473 82.1453 172.367 82.1453 172.367C80.1855 171.071 79.7537 170.606 78.7572 169.709C77.2292 168.049 75.7012 166.321 75.2362 166.288C73.376 162.501 67.8288 164.76 68.9913 168.049C69.2903 166.454 72.147 165.989 72.5456 167.517C72.4127 169.344 72.5788 169.809 74.439 170.739C76.3323 171.669 76.0666 171.005 76.6313 171.603C77.0963 172.068 77.5614 172.865 78.2257 173.23C78.1925 173.23 78.126 173.197 78.0928 173.197C77.0963 172.931 75.6348 171.536 74.0071 172.234C71.8148 169.975 69.4896 172.433 69.6889 174.592C70.4861 173.463 71.7484 173.098 73.376 174.227C74.2729 175.722 75.8341 175.522 77.2956 175.622C79.9198 176.187 80.9163 176.353 82.6768 176.619C83.4076 176.585 84.238 176.419 85.2013 178.645C85.5667 180.472 86.0649 180.04 86.4303 182.232C86.5964 183.229 87.6593 183.461 87.6593 183.461C87.9251 185.62 87.294 185.488 85.4338 186.152C86.6628 186.816 90.8482 187.381 89.5859 183.694C90.6489 182.498 89.4863 180.173 88.6891 179.209C87.8919 178.246 88.8219 177.549 88.8219 177.549C89.4531 177.017 93.5388 174.991 95.4654 174.327L97.4916 173.762L96.7608 175.855C96.7608 175.855 93.8045 177.383 92.3097 178.18L96.0301 179.807C96.2958 179.708 96.5947 179.575 96.8273 179.475C96.8273 179.475 97.2259 180.405 97.093 182.232C97.093 182.232 100.182 180.97 100.979 179.143L101.478 181.036C101.478 181.036 102.507 180.14 102.906 178.977C103.537 178.911 103.902 179.376 104.5 180.605C104.899 179.608 105.464 178.744 104.7 175.755C104.7 175.755 105.862 176.286 106.493 177.682C106.892 176.851 107.922 175.788 107.955 174.194C107.955 174.194 123.8 185.919 127.952 189.042C132.104 192.197 133.499 193.659 137.086 190.437C137.086 190.437 140.142 192.098 144.759 193.592C149.377 195.087 151.403 192.33 151.37 188.477C158.179 189.141 157.083 184.092 154.625 181.767C157.116 180.904 157.847 178.246 156.253 174.891C159.441 174.592 161.302 170.241 159.674 166.554C160.737 164.195 163.029 157.585 162.763 154.729C162.763 154.729 160.637 156.19 156.95 157.818C156.95 157.818 157.349 155.227 157.681 151.639C148.779 155.991 141.604 158.582 132.934 158.416L132.569 154.263C136.057 153.931 143.364 142.804 142.202 140.478C145.723 140.478 150.074 139.382 153.031 137.29C155.987 135.197 160.205 129.085 156.95 127.756C156.95 127.756 160.039 126.394 163.195 123.837C168.144 119.851 168.31 118.256 170.237 115.433C167.48 115.566 160.073 116.163 157.781 114.968C163.992 114.569 163.029 114.104 167.546 112.41C172.994 111.214 174.721 105.667 175.186 104.305C172.23 105.102 166.151 106.996 159.674 107.427C164.59 106.63 172.994 103.74 175.651 102.412C180.833 98.8242 184.587 88.8923 181.298 89.6563C184.686 86.3678 189.968 77.532 191.463 73.5792C188.54 76.4027 183.258 78.4289 178.508 79.7244ZM62.6469 135.13C66.5001 134.034 69.4564 133.702 69.4564 133.702C69.2239 134.964 68.9913 136.526 66.4004 137.456C67.6627 137.522 68.5263 138.751 68.5263 138.751C67.0315 138.685 64.8392 138.12 62.1154 138.818C64.042 138.851 66.5333 140.744 66.5333 140.744C65.5368 141.541 63.8427 141.408 62.5805 141.442C63.5437 142.172 64.6067 143.235 64.6067 143.235C64.6067 143.235 60.9196 143.235 59.9231 143.069C60.1224 143.302 63.3112 144.797 64.042 144.896C62.3147 145.594 61.5175 145.494 60.3881 145.494C61.0525 146.624 61.6172 146.79 61.2518 148.019C60.2885 146.026 57.5315 145.959 55.6049 145.826C53.8444 145.826 50.2237 148.351 48.3968 149.381C46.1048 153.001 44.3443 156.688 43.2149 160.442C43.2149 160.442 42.8163 160.143 42.5506 159.479C41.853 157.685 42.6502 155.426 42.9492 153.898C42.8163 155.592 42.1852 158.382 43.1485 159.246C43.082 153.433 48.1975 149.646 45.1083 149.945C44.3443 150.045 43.6467 150.145 43.1485 150.145C41.8198 151.274 39.9928 153.898 38.8635 154.662C36.6379 156.722 36.3722 158.216 36.1064 159.213C35.9736 159.777 35.2096 162.535 35.7743 163.631C34.3459 161.704 33.283 160.243 33.283 157.153C33.283 153.965 34.7778 153.068 34.7778 153.068L35.2428 151.506C35.9071 150.742 37.8337 151.008 38.6974 151.208C39.0628 151.307 40.5243 150.643 40.9894 150.344C41.2883 150.41 41.9527 150.244 42.5838 150.078C42.5506 150.012 42.4509 150.012 42.4177 149.978C43.381 149.978 45.5069 147.753 45.6397 146.723C45.8723 144.597 44.6432 140.844 44.5768 139.183C42.6502 141.608 43.8128 144.797 40.8565 147.786C39.8268 148.849 41.4876 149.879 38.0663 150.012C37.568 150.045 36.5051 150.178 35.9404 150.344C35.575 150.078 35.6746 150.111 35.5418 149.812C34.0802 147.52 35.3757 145.096 36.7044 141.94C38.2323 138.319 40.8897 134.599 47.1345 131.078C53.3461 127.524 54.1433 126.195 56.236 125.564C56.9668 125.398 59.0927 124.501 61.3514 124.567C60.9528 124.966 57.1329 129.915 57.1329 129.915C60.4878 126.627 66.5333 124.302 69.1574 125.597C67.7623 125.963 64.7396 128.155 64.341 129.151C64.341 129.151 66.6662 128.72 70.2536 130.248C69.4564 132.274 64.1084 134.4 62.6469 135.13ZM42.7166 146.125C42.6834 146.125 42.6502 146.125 42.5838 146.159C42.617 145.594 42.6502 144.863 43.0488 144.631C44.3775 145.062 44.3775 146.79 44.3775 146.79C44.2446 148.218 42.5173 148.65 41.853 148.318C42.0191 148.085 42.1187 147.853 42.2184 147.686C42.3845 147.819 42.617 147.886 42.8495 147.886C43.3146 147.853 43.6799 147.421 43.6467 146.922C43.6467 146.424 43.2149 146.092 42.7166 146.125ZM92.4758 174.626C90.8482 175.19 88.7555 175.921 88.224 176.884C88.224 176.884 87.0282 177.615 87.6926 178.446C88.3569 179.276 90.2503 181.967 89.3534 182.996C88.9216 183.196 88.2905 183.162 87.4933 181.734C86.3307 180.007 86.8621 180.472 85.4006 177.549C84.4041 176.452 84.4705 176.386 83.3079 175.788C81.9792 175.688 80.0194 175.987 77.661 174.958C76.432 174.891 74.8708 175.688 74.1068 174.393C73.9075 173.895 73.9075 173.629 74.1068 173.297C75.0036 172.3 76.7309 173.529 78.5579 173.961C79.7537 174.227 81.0824 175.057 82.0457 174.825C82.0457 174.825 80.0194 173.397 79.2222 173.23C78.425 173.031 76.9302 171.47 76.4652 170.938C76.0002 170.44 76.2991 171.005 74.7047 170.208C73.1103 169.41 72.8113 168.979 72.9442 167.417C72.9774 166.687 74.0071 166.089 74.8043 167.019C75.9337 167.65 76.7641 168.414 77.4949 169.211C78.1593 169.709 79.1558 171.071 81.2485 172.367C81.8796 172.799 82.3114 174.626 83.8726 174.293C83.5736 173.994 83.2415 173.762 83.1418 172.566C82.9757 171.902 82.1453 170.341 81.946 169.776C80.717 168.879 80.717 168.148 80.9827 166.853C81.4145 166.82 81.9792 166.853 82.3446 166.421C83.1086 166.454 84.2048 167.318 83.939 169.709C84.4705 170.241 85.3674 172.5 85.6995 173.463C85.6995 173.463 87.8254 174.36 89.7188 174.725L90.9478 173.729L95.3989 170.307L96.8605 170.507L97.0266 171.071L92.4758 174.626ZM173.06 43.0195C174.19 46.1419 173.326 49.9619 172.197 54.579C170.038 63.448 162.331 77.2663 154.027 82.88C164.557 71.6858 173.26 49.6297 173.06 43.0195ZM120.577 117.525C121.474 118.987 123.268 121.678 121.242 124.7C119.182 127.723 116.957 128.72 116.957 128.72C120.644 123.737 119.083 120.781 119.083 120.781C118.95 120.15 117.455 119.884 115.196 120.88C116.724 117.891 120.577 117.525 120.577 117.525ZM125.46 145.262C124.53 144.398 122.803 143.7 120.876 143.169C123.368 142.04 127.188 144.332 127.188 144.332C127.022 145.727 126.258 148.085 123.301 148.284C122.238 148.351 121.806 147.72 121.806 147.72C128.085 146.59 125.46 145.262 125.46 145.262ZM125.427 140.611C124.464 141.01 122.172 141.508 122.172 141.508C126.357 138.685 125.46 137.157 125.46 137.157C124.298 136.625 123.467 136.426 121.508 136.559C123.501 134.699 128.018 136.492 128.018 136.492C128.317 137.887 128.184 139.482 125.427 140.611ZM127.354 132.174C126.39 133.038 123.966 134.566 123.966 134.566C127.653 129.583 125.959 128.188 125.959 128.188C124.397 128.088 123.368 128.155 121.142 129.151C122.67 126.162 128.649 126.394 128.649 126.394C129.546 127.823 130.078 129.716 127.354 132.174ZM139.91 176.818C138.116 176.486 136.621 174.393 135.16 173.895C137.618 174.327 143.829 171.968 146.952 169.278C143.996 170.341 139.744 167.683 137.95 167.517C139.544 167.384 139.445 166.421 142.401 165.358C142.401 165.358 139.511 165.458 138.847 165.059C135.425 164.395 134.064 160.907 133.333 159.312C141.604 160.176 148.247 157.054 156.585 153.001C156.352 155.426 155.92 157.486 155.621 158.881C154.459 160.276 150.141 163.73 145.225 164.494C148.579 164.195 153.496 162.335 156.352 160.043C159.209 158.715 160.803 157.585 160.803 157.585C161.036 160.01 159.807 163.498 158.677 165.823C156.95 167.052 152.665 168.613 149.975 168.879C151.27 168.912 156.286 168.613 157.947 168.049C158.478 170.573 157.116 173.662 155.323 174.626C152.665 174.559 149.377 174.692 146.188 173.197C147.616 174.659 152.599 175.954 154.891 175.921C155.455 177.947 155.024 179.542 153.795 180.439C151.038 180.472 150.44 181.003 147.284 179.708C147.982 180.272 152.034 181.834 153.994 182.365C155.123 184.358 155.057 186.883 151.669 187.215C149.476 187.846 140.475 184.358 134.562 181.036C136.522 183.096 147.583 188.444 149.642 189.075C149.078 191.599 147.184 193.061 143.663 191.932C139.943 190.736 139.81 190.769 137.352 189.44C137.352 189.44 131.307 186.119 128.516 183.96C128.815 185.388 135.326 189.905 135.326 189.905C132.801 191.599 131.373 190.238 127.985 187.647C124.132 184.724 119.98 182 119.98 182C119.98 182 115.163 178.578 114.632 177.98C116.16 178.811 122.703 180.14 121.707 178.147C123.6 179.575 126.258 180.605 133.997 180.704C132.004 180.073 131.639 179.475 129.048 177.615C130.41 178.014 137.884 177.349 139.91 176.818ZM130.875 120.714C127.619 124.036 124.397 125.232 124.397 125.232C130.177 119.751 129.347 117.359 129.347 117.359C129.38 115.333 126.324 115.632 123.069 117.293C125.593 114.071 130.974 113.373 130.974 113.373C133.765 114.204 134.13 117.393 130.875 120.714ZM129.38 90.686C137.651 68.7959 135.791 20.4319 135.359 15.3497C138.315 20.1329 141.039 48.4339 141.371 57.2364C141.737 67.8326 133.532 88.7926 129.38 90.686ZM136.953 88.7262C150.938 68.0652 152.167 29.0019 151.204 17.6749C153.628 24.4511 156.718 42.0894 156.884 51.5231C157.116 63.2155 141.106 86.9325 136.953 88.7262ZM166.616 27.5736C168.875 32.6225 168.742 44.481 167.38 52.2871C164.789 67.268 148.447 85.9359 144.228 87.2978C159.94 68.1316 167.713 38.5352 166.616 27.5736ZM148.779 91.6493C161.501 82.1824 180.302 62.1857 181.431 55.6752C181.797 60.2924 178.541 64.2784 176.88 67.0687C171.4 76.3362 151.37 91.5496 148.779 91.6493ZM153.562 92.6126C167.845 86.3678 187.178 70.1911 189.735 64.0791C188.174 68.4306 183.79 73.8449 181.564 76.1701C174.19 83.9429 156.087 93.1441 153.562 92.6126ZM179.305 88.693C172.263 94.5392 156.12 100.385 154.094 99.6546C166.716 95.9011 184.653 84.1754 187.477 79.2593C185.683 82.7803 181.431 86.9325 179.305 88.693Z" fill="#16315A"/>
</g>
<defs>
<clipPath id="clip0_11_241919">
<rect width="200" height="198.472" fill="white" transform="translate(0 1)"/>
</clipPath>
</defs>
</svg>
